<svg xmlns="http://www.w3.org/2000/svg" version="1.1" xmlns:xlink="http://www.w3.org/1999/xlink" xmlns:svgjs="http://svgjs.dev/svgjs" width="1500" height="1500" viewBox="0 0 1500 1500"><g transform="matrix(1,0,0,1,-0.323615160350073,-0.3236151603499593)"><svg viewBox="0 0 343 343" data-background-color="#ffffff" preserveAspectRatio="xMidYMid meet" height="1500" width="1500" xmlns="http://www.w3.org/2000/svg" xmlns:xlink="http://www.w3.org/1999/xlink"><g id="tight-bounds" transform="matrix(1,0,0,1,0.0740000000000407,0.07400000000001228)"><svg viewBox="0 0 342.85155851775386 342.85155851775386" height="342.85155851775386" width="342.85155851775386"><g><svg></svg></g><g><svg viewBox="0 0 342.85155851775386 342.85155851775386" height="342.85155851775386" width="342.85155851775386"><g><path d="M0 171.426c0-94.676 76.75-171.426 171.426-171.426 94.676 0 171.426 76.75 171.426 171.426 0 94.676-76.75 171.426-171.426 171.426-94.676 0-171.426-76.75-171.426-171.426zM171.426 338.708c92.387 0 167.282-74.895 167.282-167.282 0-92.387-74.895-167.282-167.282-167.282-92.387 0-167.282 74.895-167.282 167.282 0 92.387 74.895 167.282 167.282 167.282z" data-fill-palette-color="tertiary" fill="#085f63" stroke="transparent"></path><ellipse rx="164.56874808852186" ry="164.56874808852186" cx="171.42577925887693" cy="171.42577925887693" fill="#085f63" stroke="transparent" stroke-width="0" fill-opacity="1" data-fill-palette-color="tertiary"></ellipse></g><g transform="matrix(1,0,0,1,64.84655864529837,111.27987272403794)"><svg viewBox="0 0 213.1584412271571 120.29181306967797" height="120.29181306967797" width="213.1584412271571"><g><svg viewBox="0 0 213.1584412271571 120.29181306967797" height="120.29181306967797" width="213.1584412271571"><g><svg viewBox="0 0 213.1584412271571 120.29181306967797" height="120.29181306967797" width="213.1584412271571"><g transform="matrix(1,0,0,1,0,74.34516634525974)"><svg viewBox="0 0 213.1584412271571 45.94664672441822" height="45.94664672441822" width="213.1584412271571"><g id="textblocktransform"><svg viewBox="0 0 213.1584412271571 45.94664672441822" height="45.94664672441822" width="213.1584412271571" id="textblock"><g><svg viewBox="0 0 213.1584412271571 45.94664672441822" height="45.94664672441822" width="213.1584412271571"><g transform="matrix(1,0,0,1,0,0)"><svg width="213.1584412271571" viewBox="-5.4 -42.9 225.68 48.65" height="45.94664672441822" data-palette-color="#ffffff"><path d="M28.9-32.6L28.9-32.6 28.9-14.8Q28.9-5.45 29.55-1.75L29.55-1.75Q32.2-1.5 35.05-0.8L35.05-0.8 34.9 0.4Q31.7 0 27.33 0 22.95 0 19.9 0.4L19.9 0.4 19.7-0.85Q21.95-1.55 24.5-1.9L24.5-1.9Q25-6.95 25.05-16.4L25.05-16.4Q21.35-16.75 17.7-16.75 14.05-16.75 10.35-16.4L10.35-16.4Q10.4-5.7 11-1.75L11-1.75Q13.65-1.5 16.5-0.8L16.5-0.8 16.35 0.4Q12.65 0 8.33 0 4 0 1.35 0.4L1.35 0.4 1.15-0.85Q3.4-1.55 5.95-1.9L5.95-1.9Q6.5-6 6.5-14.8L6.5-14.8 6.5-17.75Q6.5-24.3 5.95-29.8L5.95-29.8 5.9-29.8Q0-29.8-1.65-28.2L-1.65-28.2Q-2-27.5-2-26-2-24.5-1.5-23.95L-1.5-23.95-1.55-23.6Q-2.8-22.85-4.05-21.5L-4.05-21.5Q-4.65-21.55-5.03-22-5.4-22.45-5.4-23.05L-5.4-23.05Q-5.4-25.5-2.45-28.9 0.5-32.3 3.05-33.2L3.05-33.2Q3.45-33.2 6.65-32.88 9.85-32.55 11.68-32.55 13.5-32.55 15.05-32.85L15.05-32.85 15.25-31.6Q13.3-30.85 10.8-30.25L10.8-30.25Q10.45-26.5 10.35-19.1L10.35-19.1Q14.15-18.6 17.9-18.6 21.65-18.6 25.05-19.05L25.05-19.05Q25-28 24.6-32.65L24.6-32.65Q25.55-35.7 29.23-39.3 32.9-42.9 35.65-42.9L35.65-42.9Q36.25-42.9 36.73-42.53 37.2-42.15 37.2-41.55L37.2-41.55Q35.85-40.3 35.1-39.05L35.1-39.05 34.75-39Q34.2-39.5 32.7-39.5 31.2-39.5 30.5-39.15L30.5-39.15Q28.9-37.3 28.9-32.6ZM48.55 0.6Q43.6 0.6 40.55-2.53 37.5-5.65 37.5-10.9 37.5-16.15 40.7-20.75 43.9-25.35 49.05-26.65L49.05-26.65Q54.2-26.65 56.9-23.73 59.6-20.8 59.6-15.4 59.6-10 56.67-5.65 53.75-1.3 48.55 0.6L48.55 0.6ZM47.7-23.6L47.7-23.6Q45.45-23.6 43.8-22.35L43.8-22.35Q41.75-18.85 41.75-13.55L41.75-13.55Q41.75-7.45 45.15-4.2L45.15-4.2Q46.95-2.45 49.4-2.45 51.85-2.45 53.35-3.75L53.35-3.75Q55.35-7.25 55.35-12.3 55.35-17.35 53.55-20.48 51.75-23.6 47.7-23.6ZM76.8-1.5L76.8-2.8Q76.8-5.9 75.25-12.08 73.7-18.25 71.8-24.05L71.8-24.05 71.6-24 70.35-14.7Q69.55-8.95 69.55-4.35L69.55-4.35Q69.55-1.55 71.3-0.6L71.3-0.6 71.1 0.25Q69.6 0 67.17 0 64.75 0 61.85 0.4L61.85 0.4 61.65-0.9Q63.35-1.45 64.85-1.7L64.85-1.7 69.5-24.5Q66.9-24.95 65.65-25.3L65.65-25.3 65.8-26.6Q69.4-26.05 72.47-26.05 75.55-26.05 77.25-26.4L77.25-26.4 77.35-25.55Q76-25.2 76-24.4L76-24.4Q76-23.3 79.1-11.7L79.1-11.7 80.2-7.95 80.55-8.05Q80.55-9.35 85.1-24.35L85.1-24.35Q85.1-25.2 83.75-25.55L83.75-25.55 83.85-26.4Q85.55-26.05 88.67-26.05 91.8-26.05 95.34-26.6L95.34-26.6 95.5-25.3Q94.15-24.95 92.05-24.55L92.05-24.55Q91.9-23.35 91.9-21.03 91.9-18.7 92.55-11.5 93.2-4.3 93.75-1.6L93.75-1.6Q95.59-1.35 97.55-0.9L97.55-0.9 97.4 0.35Q94.8 0 91.62 0 88.45 0 85.9 0.4L85.9 0.4 85.7-0.9Q87.35-1.4 89.25-1.65L89.25-1.65Q89.1-13.45 87.65-23.9L87.65-23.9 87.5-23.9Q82.35-8.7 82-4.2L82-4.2Q80.95-3.85 79.55-2.93 78.15-2 77.4-1.1L77.4-1.1 76.8-1.5ZM104.44-12.35Q104.59-7.9 106.09-5.4 107.59-2.9 111.19-2.9 114.79-2.9 117.84-5.95L117.84-5.95 118.54-5.25Q115.19-1 110.49 0.6L110.49 0.6Q105.64 0.6 102.89-2.48 100.14-5.55 100.14-10.78 100.14-16 103.39-20.6 106.64-25.2 111.69-26.65L111.69-26.65Q115.34-26.65 119.94-25.9L119.94-25.9 119.89-24.8Q118.94-24.8 118.09-24.45L118.09-24.45Q117.14-22.2 116.84-19.1L116.84-19.1 115.59-19.1Q115.19-20.8 115.19-22.6L115.19-22.6Q113.29-23.55 110.69-23.55 108.09-23.55 106.39-22.15L106.39-22.15Q104.69-19.05 104.44-14.75L104.44-14.75Q106.54-14.4 108.94-14.4L108.94-14.4Q113.09-14.4 113.94-16.15L113.94-16.15 114.99-16Q114.54-14.5 114.54-13.05 114.54-11.6 114.89-9.5L114.89-9.5 113.69-9.3Q113.14-10.8 112.89-12.4L112.89-12.4Q110.89-12.6 108.92-12.6 106.94-12.6 104.44-12.35L104.44-12.35ZM129.19-1.75Q130.09-0.25 131.72 0.73 133.34 1.7 135.52 1.7 137.69 1.7 139.92 0.43 142.14-0.85 143.64-2.75L143.64-2.75 144.34-2.05Q140.69 3.65 134.44 5.75L134.44 5.75Q130.14 5.75 127.39 3.55 124.64 1.35 123.52-2.1 122.39-5.55 122.39-10.6 122.39-15.65 123.67-20.18 124.94-24.7 128.09-28.33 131.24-31.95 135.94-33.3L135.94-33.3Q140.99-33.3 146.24-32.35L146.24-32.35 146.19-31.25Q144.89-31.25 143.79-30.8L143.79-30.8Q142.54-27.85 142.14-23.75L142.14-23.75 140.89-23.75Q140.44-26.1 140.44-28.25L140.44-28.25Q137.79-29.7 134.62-29.7 131.44-29.7 129.39-27.8L129.39-27.8Q126.84-22.65 126.84-14.55L126.84-14.55Q126.84-5.5 129.19-1.75L129.19-1.75ZM150.44-25.3L150.59-26.6Q155.29-26.05 160.09-26.05 164.89-26.05 169.54-26.6L169.54-26.6 169.74-25.3Q168.24-24.7 166.64-24.4L166.64-24.4Q166.09-20.3 166.09-13 166.09-5.7 166.64-1.6L166.64-1.6Q167.64-1.45 170.34-0.85L170.34-0.85 170.14 0.4Q167.74 0 163.99 0 160.24 0 158.24 0.4L158.24 0.4 158.04-0.9Q159.74-1.45 161.89-1.7L161.89-1.7Q162.19-4.6 162.34-9.75L162.34-9.75Q159.99-10 157.64-10 155.29-10 153.54-9.75L153.54-9.75Q152.54-5.65 152.54-4.05L152.54-4.05Q152.54-1.6 154.29-0.6L154.29-0.6 154.09 0.25Q152.94 0 149.74 0 146.54 0 144.69 0.4L144.69 0.4 144.49-0.9Q145.69-1.35 147.79-1.7L147.79-1.7 154.29-24.5Q152.09-24.85 150.44-25.3L150.44-25.3ZM156.89-24.05L153.94-12.1Q155.89-11.8 158.26-11.8 160.64-11.8 162.34-12.1L162.34-12.1Q162.34-21.35 161.94-24.05L161.94-24.05Q160.24-24.15 159.41-24.15 158.59-24.15 156.89-24.05L156.89-24.05ZM174.09-24.95L174.09-25.95 185.59-26.3Q190.09-26.3 192.34-24.98 194.59-23.65 194.59-20.15L194.59-20.15Q194.59-17.75 193.11-15.9 191.64-14.05 189.24-13.15L189.24-13.15 194.84-1.7Q196.54-1.4 198.04-1L198.04-1 197.84 0.35Q195.74 0 193.11 0 190.49 0 188.99 0.25L188.99 0.25 188.79-0.55Q189.44-1.2 189.44-2.7L189.44-2.7Q189.44-5.75 185.94-12.5L185.94-12.5Q184.89-12.7 183.49-12.7L183.49-12.7 183.59-14.15 184.09-14.15Q189.99-14.15 189.99-19.55L189.99-19.55Q189.99-24.55 184.94-24.55L184.94-24.55Q183.24-24.55 181.89-24L181.89-24Q181.54-20.7 181.54-12.7 181.54-4.7 181.99-1.65L181.99-1.65Q184.19-1.4 186.09-0.9L186.09-0.9 185.94 0.35Q183.34 0 180.11 0 176.89 0 174.34 0.4L174.34 0.4 174.14-0.9Q175.54-1.35 177.29-1.65L177.29-1.65Q177.79-5.4 177.79-13.33 177.79-21.25 177.34-24.3L177.34-24.3Q175.39-24.95 174.09-24.95L174.09-24.95ZM204.78-12.35Q204.93-7.9 206.43-5.4 207.93-2.9 211.53-2.9 215.13-2.9 218.18-5.95L218.18-5.95 218.88-5.25Q215.53-1 210.83 0.6L210.83 0.6Q205.98 0.6 203.23-2.48 200.48-5.55 200.48-10.78 200.48-16 203.73-20.6 206.98-25.2 212.03-26.65L212.03-26.65Q215.68-26.65 220.28-25.9L220.28-25.9 220.23-24.8Q219.28-24.8 218.43-24.45L218.43-24.45Q217.48-22.2 217.18-19.1L217.18-19.1 215.93-19.1Q215.53-20.8 215.53-22.6L215.53-22.6Q213.63-23.55 211.03-23.55 208.43-23.55 206.73-22.15L206.73-22.15Q205.03-19.05 204.78-14.75L204.78-14.75Q206.88-14.4 209.28-14.4L209.28-14.4Q213.43-14.4 214.28-16.15L214.28-16.15 215.33-16Q214.88-14.5 214.88-13.05 214.88-11.6 215.23-9.5L215.23-9.5 214.03-9.3Q213.48-10.8 213.23-12.4L213.23-12.4Q211.23-12.6 209.26-12.6 207.28-12.6 204.78-12.35L204.78-12.35Z" opacity="1" transform="matrix(1,0,0,1,0,0)" fill="#ffffff" class="wordmark-text-0" data-fill-palette-color="quaternary" id="text-0"></path></svg></g></svg></g></svg></g></svg></g><g transform="matrix(1,0,0,1,74.22745683305465,0)"><svg viewBox="0 0 64.70352756104784 63.49826577314599" height="63.49826577314599" width="64.70352756104784"><g><svg xmlns="http://www.w3.org/2000/svg" xmlns:xlink="http://www.w3.org/1999/xlink" version="1.1" x="0" y="0" viewBox="24.549999999999997 24.949999999999996 50.999999999999986 50.050000000000004" enable-background="new 0 0 100 100" xml:space="preserve" height="63.49826577314599" width="64.70352756104784" class="icon-icon-0" data-fill-palette-color="quaternary" id="icon-0"><path d="M51.8 25.7c-1-1-2.6-1-3.5 0l-23 23c-1 1-1 2.6 0 3.5 1 1 2.6 1 3.5 0l0.7-0.7v21c0 1.4 1.1 2.5 2.5 2.5h36c1.4 0 2.5-1.1 2.5-2.5v-21l0.7 0.7c0.5 0.5 1.1 0.7 1.8 0.7s1.3-0.2 1.8-0.7c1-1 1-2.6 0-3.5L51.8 25.7zM65 70H35c-0.3 0-0.5-0.2-0.5-0.5V46.7c0-0.1 0.1-0.3 0.1-0.4l15-15c0.2-0.2 0.5-0.2 0.7 0l15 15c0.1 0.1 0.1 0.2 0.1 0.4v22.8C65.5 69.8 65.3 70 65 70z" fill="#ffffff" data-fill-palette-color="quaternary"></path><path d="M46.5 50.5v10c0 1.4 1.1 2.5 2.5 2.5h10c1.4 0 2.5-1.1 2.5-2.5v-10c0-1.4-1.1-2.5-2.5-2.5H49C47.6 48 46.5 49.1 46.5 50.5zM51.5 53h5v5h-5V53z" fill="#ffffff" data-fill-palette-color="quaternary"></path></svg></g></svg></g><g></g></svg></g></svg></g></svg></g></svg></g><defs></defs></svg><rect width="342.85155851775386" height="342.85155851775386" fill="none" stroke="none" visibility="hidden"></rect></g></svg></g></svg>